<svg xmlns="http://www.w3.org/2000/svg" width="108px" height="108px" viewBox="0 0 108 108">
    <path
        style="fill:#fff"
        d="M 54,0 a 54,54 0 0 0 0,108 54,54 0 0 0 0,-108 Z" />
    <path
        style="fill:#000"
        d="
        M 36,36 L 72,54 L 36,72 Z
        M 10 30 h  4 v 48 h -4 Z
        M 98 30 h -4 v 48 h  4 Z
        M 17 47 a 3,3 0 0 0  6,0 a 3,3 0 0 0 -6,0 Z
        M 17 61 a 3,3 0 0 0  6,0 a 3,3 0 0 0 -6,0 Z
        M 91 47 a 3,3 0 0 0 -6,0 a 3,3 0 0 0  6,0 Z
        M 91 61 a 3,3 0 0 0 -6,0 a 3,3 0 0 0  6,0 Z
        "/>
</svg>
